<?xml version="1.0" encoding="utf-8"?>
<!-- Generator: Adobe Illustrator 16.0.0, SVG Export Plug-In . SVG Version: 6.00 Build 0)  -->
<!DOCTYPE svg PUBLIC "-//W3C//DTD SVG 1.1//EN" "http://www.w3.org/Graphics/SVG/1.1/DTD/svg11.dtd">
<svg version="1.1" id="Layer_1" xmlns="http://www.w3.org/2000/svg" xmlns:xlink="http://www.w3.org/1999/xlink" x="0px" y="0px"
	 width="340px" height="340px" viewBox="0 0 340 340" enable-background="new 0 0 340 340" xml:space="preserve">
<g>
	<path fill="#009444" d="M338.23926,194.47705C309.19824,155.43506,281.60547,124.11182,237,124.11182
		c-44.12793,0-78.94824,34.75244-119.2666,74.99219c-25.59766,25.54736-51.99512,51.87549-83.88574,72.70752
		C64.85352,313.20898,114.29785,340,170,340C255.5752,340,326.37109,276.7666,338.23926,194.47705z"/>
	<path fill="#27AAE1" d="M170,0C76.11133,0,0,76.11182,0,170c0,38.18652,12.5918,73.43164,33.84766,101.81152
		c31.89062-20.83203,58.28809-47.16016,83.88574-72.70752c40.31836-40.23975,75.13867-74.99219,119.2666-74.99219
		c44.60547,0,72.19824,31.32324,101.23926,70.36475C339.3916,186.48291,340,178.31299,340,170C340,76.11182,263.88867,0,170,0z
		 M109.72363,191.07861c-10.94922,10.92773-22.05371,21.99561-33.64258,32.68555
		c-9.81543-13.85693-15.60254-30.76807-15.60254-49.04102c0-46.92822,38.04297-84.97021,84.96973-84.97021
		c24.79688,0,47.10742,10.62793,62.64062,27.57031C172.39355,128.55859,141.76074,159.10352,109.72363,191.07861z"/>
	<g>
		<path fill="#F9E428" d="M109.72363,191.07861c32.03711-31.9751,62.66992-62.52002,98.36523-73.75537
			c-15.5332-16.94238-37.84375-27.57031-62.64062-27.57031c-46.92676,0-84.96973,38.04199-84.96973,84.97021
			c0,18.27295,5.78711,35.18408,15.60254,49.04102C87.66992,213.07422,98.77441,202.00635,109.72363,191.07861z"/>
	</g>
</g>
<g>
</g>
<g>
</g>
<g>
</g>
<g>
</g>
<g>
</g>
<g>
</g>
</svg>
