<?xml version="1.0" encoding="utf-8"?>
<!-- Generator: Adobe Illustrator 16.0.0, SVG Export Plug-In . SVG Version: 6.00 Build 0)  -->
<!DOCTYPE svg PUBLIC "-//W3C//DTD SVG 1.1//EN" "http://www.w3.org/Graphics/SVG/1.1/DTD/svg11.dtd">
<svg version="1.1" id="Layer_1" xmlns="http://www.w3.org/2000/svg" xmlns:xlink="http://www.w3.org/1999/xlink" x="0px" y="0px"
	 width="1133.86035px" height="1133.86035px" viewBox="0 0 1133.86035 1133.86035"
	 enable-background="new 0 0 1133.86035 1133.86035" xml:space="preserve">
<path fill="#009444" d="M730.11328,0C507.48535,0,326.36426,181.12012,326.36426,403.74707
	c0,88.82861,28.85742,171.03027,77.65918,237.77441c-0.00879-0.01172-0.01953-0.02344-0.02734-0.03516L18.30371,1027.17969
	c-24.4043,24.4043-24.4043,63.9707,0,88.375c12.20215,12.20312,28.19531,18.30469,44.1875,18.30469
	c15.99316,0,31.98633-6.10156,44.18848-18.30469l385.69238-385.69336c-0.00195-0.00195-0.00391-0.00391-0.00684-0.00391
	c66.74023,48.78711,148.93262,77.63672,237.74805,77.63672c222.62695,0,403.74609-181.12109,403.74609-403.74707
	C1133.85938,181.12012,952.74023,0,730.11328,0z M730.11328,682.50977c-153.70996,0-278.76465-125.05225-278.76465-278.7627
	S576.40332,124.9834,730.11328,124.9834S1008.875,250.03662,1008.875,403.74707S883.82324,682.50977,730.11328,682.50977z"/>
<g>
</g>
<g>
</g>
<g>
</g>
<g>
</g>
<g>
</g>
<g>
</g>
</svg>
